<svg xmlns="http://www.w3.org/2000/svg" viewBox="0 0 128 128" role="img" aria-labelledby="title desc">
  <title id="title">午夜咖啡站点图标</title>
  <desc id="desc">深色底上的咖啡杯与新月图形</desc>
  <rect width="128" height="128" rx="28" fill="#171614"/>
  <path
    fill="#f6efe4"
    fill-rule="evenodd"
    d="M70 24c-14.36 0-26 11.64-26 26s11.64 26 26 26c6.11 0 11.73-2.11 16.18-5.64-9.82-.76-17.58-8.97-17.58-18.98 0-8.86 6.09-16.29 14.31-18.33A25.9 25.9 0 0 0 70 24Z"
  />
  <path
    d="M31 69c0-5.52 4.48-10 10-10h27c5.52 0 10 4.48 10 10v13c0 5.52-4.48 10-10 10H41c-5.52 0-10-4.48-10-10V69Z"
    fill="none"
    stroke="#f6efe4"
    stroke-width="8"
    stroke-linejoin="round"
  />
  <path
    d="M77 67h8c8.84 0 16 7.16 16 16s-7.16 16-16 16h-8"
    fill="none"
    stroke="#c9723c"
    stroke-width="8"
    stroke-linecap="round"
    stroke-linejoin="round"
  />
  <path
    d="M29 100h61"
    fill="none"
    stroke="#f6efe4"
    stroke-width="8"
    stroke-linecap="round"
  />
  <circle cx="94" cy="38" r="4" fill="#c9723c"/>
</svg>
