<svg xmlns="http://www.w3.org/2000/svg" viewBox="0 0 48 48" width="48" height="48" role="img" aria-labelledby="title desc">
  <title id="title">Astro</title>
  <desc id="desc">Astro logo thumbnail</desc>
  <defs>
    <linearGradient id="astro-bg" x1="8" y1="6" x2="40" y2="42" gradientUnits="userSpaceOnUse">
      <stop offset="0" stop-color="#6d5cff" />
      <stop offset="1" stop-color="#ff5d9e" />
    </linearGradient>
  </defs>
  <rect width="48" height="48" rx="12" fill="url(#astro-bg)" />
  <path
    d="M24 7.5 32.1 29c.18.47-.3.9-.75.68l-5.68-2.82a.76.76 0 0 0-.67 0l-5.7 2.82c-.44.22-.92-.2-.74-.67L24 7.5Z"
    fill="#fff"
  />
  <path
    d="M19.6 31.3c1.2 1.96 3.12 3.2 4.38 4.84.7.9 1.05 1.86 1.08 3.36 0 .16.22.22.3.08.56-1.08.82-2.53.47-3.95-.37-1.53-1.3-2.53-2.54-3.52-.63-.5-.9-1.27-.73-2.04.03-.14-.11-.24-.22-.17l-2.6 1.57c-.18.1-.24.34-.14.51Z"
    fill="#fff"
    opacity=".9"
  />
</svg>
