<svg width="160px" height="160px" viewBox="0 0 6.4 6.4" xmlns="http://www.w3.org/2000/svg"><title>folder_type_kubernetes</title><path d="M5.5 1.1h-1.86l-0.42 0.84H0.88v3.36h5.04v-4.2Zm0 0.84h-1.64l0.22 -0.42h1.42Z" style="fill:#89a8ec"/><path d="M4.02 2a0.3 0.3 0 0 0 -0.11 0.028l-1.505 0.72a0.286 0.286 0 0 0 -0.156 0.194L1.878 4.556a0.284 0.284 0 0 0 0.04 0.219q0.008 0.012 0.016 0.023l1.042 1.295A0.288 0.288 0 0 0 3.2 6.2h1.67a0.288 0.288 0 0 0 0.225 -0.107l1.041 -1.295a0.284 0.284 0 0 0 0.056 -0.242L5.82 2.94a0.286 0.286 0 0 0 -0.156 -0.194L4.16 2.028a0.29 0.29 0 0 0 -0.14 -0.028" style="fill:#326ce5"/><path d="M4.035 2.55a0.095 0.095 0 0 0 -0.09 0.1v0.026a0.8 0.8 0 0 0 0.012 0.086 0.84 0.84 0 0 1 0.01 0.163 0.1 0.1 0 0 1 -0.029 0.047l-0.002 0.038a1.2 1.2 0 0 0 -0.163 0.025 1.16 1.16 0 0 0 -0.589 0.336c-0.01 -0.007 -0.027 -0.02 -0.033 -0.023a0.072 0.072 0 0 1 -0.054 -0.005 0.84 0.84 0 0 1 -0.121 -0.11 0.8 0.8 0 0 0 -0.06 -0.063c-0.005 -0.005 -0.014 -0.011 -0.02 -0.016a0.108 0.108 0 0 0 -0.063 -0.024 0.086 0.086 0 0 0 -0.072 0.032 0.095 0.095 0 0 0 0.022 0.133h0.001c0.006 0.005 0.013 0.011 0.019 0.015a0.8 0.8 0 0 0 0.075 0.044 0.84 0.84 0 0 1 0.134 0.094 0.1 0.1 0 0 1 0.018 0.052l0.029 0.026a1.166 1.166 0 0 0 -0.184 0.813l-0.038 0.011a0.12 0.12 0 0 1 -0.039 0.04 0.84 0.84 0 0 1 -0.161 0.027 0.8 0.8 0 0 0 -0.086 0.007l-0.024 0.006h-0.001a0.09 0.09 0 1 0 0.04 0.176h0.003c0.007 -0.002 0.017 -0.003 0.023 -0.005a0.8 0.8 0 0 0 0.08 -0.031 0.84 0.84 0 0 1 0.157 -0.046 0.1 0.1 0 0 1 0.052 0.018l0.04 -0.007a1.172 1.172 0 0 0 0.52 0.649l-0.016 0.04a0.09 0.09 0 0 1 0.008 0.051 0.88 0.88 0 0 1 -0.082 0.147 0.8 0.8 0 0 0 -0.048 0.072c-0.004 0.007 -0.008 0.017 -0.012 0.024a0.09 0.09 0 1 0 0.163 0.077c0.003 -0.007 0.008 -0.016 0.011 -0.023a0.8 0.8 0 0 0 0.026 -0.083 0.64 0.64 0 0 1 0.07 -0.162 0.074 0.074 0 0 1 0.039 -0.02l0.02 -0.037a1.166 1.166 0 0 0 0.831 0.002c0.006 0.01 0.016 0.03 0.02 0.035a0.072 0.072 0 0 1 0.046 0.028 0.84 0.84 0 0 1 0.062 0.151 0.8 0.8 0 0 0 0.026 0.083l0.011 0.023a0.09 0.09 0 1 0 0.163 -0.077c-0.003 -0.007 -0.008 -0.018 -0.012 -0.024a0.8 0.8 0 0 0 -0.048 -0.072 0.84 0.84 0 0 1 -0.08 -0.143 0.07 0.07 0 0 1 0.007 -0.053 0.4 0.4 0 0 1 -0.015 -0.036 1.172 1.172 0 0 0 0.52 -0.653c0.012 0.002 0.032 0.005 0.038 0.007a0.072 0.072 0 0 1 0.05 -0.019 0.84 0.84 0 0 1 0.157 0.046 0.8 0.8 0 0 0 0.08 0.031c0.007 0.002 0.016 0.003 0.023 0.005h0.003a0.09 0.09 0 1 0 0.04 -0.176c-0.008 -0.002 -0.019 -0.005 -0.026 -0.006a0.8 0.8 0 0 0 -0.086 -0.007 0.84 0.84 0 0 1 -0.161 -0.027 0.1 0.1 0 0 1 -0.039 -0.04l-0.036 -0.011a1.17 1.17 0 0 0 -0.188 -0.811l0.032 -0.029a0.072 0.072 0 0 1 0.017 -0.051 0.84 0.84 0 0 1 0.134 -0.094 0.8 0.8 0 0 0 0.075 -0.044c0.006 -0.004 0.014 -0.011 0.02 -0.016a0.091 0.091 0 1 0 -0.112 -0.14l-0.02 0.016a0.8 0.8 0 0 0 -0.06 0.063 0.84 0.84 0 0 1 -0.121 0.11 0.1 0.1 0 0 1 -0.055 0.006l-0.034 0.024a1.18 1.18 0 0 0 -0.748 -0.361c0 -0.012 -0.002 -0.034 -0.002 -0.04a0.072 0.072 0 0 1 -0.029 -0.045 0.84 0.84 0 0 1 0.01 -0.163 0.8 0.8 0 0 0 0.012 -0.086v-0.026a0.095 0.095 0 0 0 -0.09 -0.1Zm-0.113 0.699 -0.027 0.472h-0.002a0.08 0.08 0 0 1 -0.126 0.06L3.38 3.509a0.928 0.928 0 0 1 0.447 -0.243 1 1 0 0 1 0.095 -0.017Zm0.226 0a0.936 0.936 0 0 1 0.54 0.26l-0.385 0.273h-0.001a0.08 0.08 0 0 1 -0.126 -0.06Zm-0.909 0.436 0.354 0.316v0.002a0.08 0.08 0 0 1 -0.031 0.136v0.002l-0.453 0.131a0.928 0.928 0 0 1 0.131 -0.587Zm1.59 0a0.944 0.944 0 0 1 0.136 0.585l-0.456 -0.13v-0.002a0.08 0.08 0 0 1 -0.031 -0.136l0.352 -0.315Zm-0.866 0.34h0.145l0.09 0.113 -0.032 0.14 -0.13 0.063 -0.13 -0.063 -0.032 -0.14Zm0.465 0.385a0.08 0.08 0 0 1 0.018 0.001l0.469 0.08a0.928 0.928 0 0 1 -0.374 0.471l-0.182 -0.44a0.08 0.08 0 0 1 0.069 -0.111Zm-0.788 0.002a0.08 0.08 0 0 1 0.072 0.111l0.001 0.002 -0.18 0.435a0.932 0.932 0 0 1 -0.374 -0.468l0.465 -0.079a0.08 0.08 0 0 1 0.016 -0.001Zm0.393 0.191a0.08 0.08 0 0 1 0.073 0.042h0.002l0.229 0.415a1 1 0 0 1 -0.092 0.026 0.932 0.932 0 0 1 -0.508 -0.026l0.229 -0.413a0.08 0.08 0 0 1 0.067 -0.042Z" style="fill:#ffffff;stroke:#ffffff;stroke-width:0.25px"/></svg>