<svg version="1.1" id="_x34_" xmlns="http://www.w3.org/2000/svg" xmlns:xlink="http://www.w3.org/1999/xlink" viewBox="0 0 160 160" xml:space="preserve" width="160" height="160"><g><path style="fill:none;" d="M84.416 64.909c-16.606 0 -30.132 13.526 -30.132 30.132l0 0.006c0.002 -16.613 13.518 -30.129 30.131 -30.129 8.308 0 15.842 3.381 21.298 8.838l0.002 -0.001c-5.458 -5.461 -12.993 -8.846 -21.299 -8.846"/><path style="fill:none;" d="M85.442 82.148c0 8.195 -2.658 15.773 -7.147 21.922 4.495 -6.146 7.158 -13.716 7.158 -21.914 0 -10.264 -4.173 -19.544 -10.9 -26.27l-0.006 0.006c6.724 6.725 10.895 16.002 10.895 26.257"/><path style="fill:none;" d="m84.417 89.09 0 -0.009c0 -8.3 -3.379 -15.83 -8.832 -21.286l-0.002 0.001c5.455 5.456 8.833 12.988 8.833 21.294"/><g><path style="fill:#F5A649;" d="M160 79.975c0 44.171 -35.829 80 -80 80 -16.041 0 -31.004 -4.748 -43.555 -12.884a80.531 80.531 0 0 1 -23.561 -23.561C4.748 111.004 0 96.041 0 79.975 0 35.804 35.829 0 80 0c19.018 0 36.522 6.647 50.253 17.76 4.415 3.542 8.418 7.572 11.986 11.986C153.352 43.477 160 60.93 160 79.975"/><g><g><g><path style="fill:#FFFFFF;" d="M130.991 65.589c-1.428 0 -2.856 -0.545 -3.945 -1.634C114.458 51.367 97.75 44.435 80 44.435c-17.75 0 -34.458 6.933 -47.046 19.521 -2.178 2.178 -5.711 2.178 -7.891 0 -2.179 -2.179 -2.179 -5.712 0 -7.891C39.758 41.369 59.269 33.276 80 33.276c20.731 0 40.241 8.093 54.937 22.789 2.179 2.179 2.179 5.712 0 7.891a5.563 5.563 0 0 1 -3.946 1.634"/></g><g><path style="fill:#FFFFFF;stroke:#040000;stroke-width:13;stroke-miterlimit:10;" d="M80 93.722"/></g><g><path style="fill:#FFFFFF;" d="M114.135 82.445c-1.428 0 -2.856 -0.545 -3.945 -1.634 -8.078 -8.078 -18.8 -12.527 -30.19 -12.527s-22.112 4.449 -30.19 12.527c-2.179 2.178 -5.711 2.178 -7.891 0 -2.179 -2.179 -2.179 -5.712 0 -7.891C52.105 62.735 65.629 57.125 80 57.125s27.894 5.61 38.081 15.795c2.179 2.179 2.179 5.712 0 7.891a5.563 5.563 0 0 1 -3.946 1.634"/></g><g><path style="fill:#FFFFFF;" d="M97.279 99.301c-1.428 0 -2.856 -0.544 -3.945 -1.634 -3.569 -3.567 -8.304 -5.533 -13.334 -5.533s-9.766 1.965 -13.334 5.533c-2.179 2.179 -5.713 2.178 -7.89 -0.001 -2.179 -2.179 -2.179 -5.712 0.001 -7.89 5.676 -5.676 13.213 -8.801 21.224 -8.801s15.548 3.126 21.224 8.801c2.179 2.178 2.179 5.711 0.001 7.89a5.563 5.563 0 0 1 -3.945 1.635"/></g><g><path style="fill:#FFFFFF;" d="M93.108 120.136c0 7.24 -5.867 13.108 -13.108 13.108s-13.108 -5.867 -13.108 -13.108c0 -3.62 1.467 -6.897 3.839 -9.269s5.649 -3.838 9.269 -3.838 6.897 1.467 9.269 3.838c2.372 2.372 3.839 5.648 3.839 9.269"/></g></g><g style="opacity:0.04;"><g><g><path style="fill:#040000;" d="M136.172 62.084a5.469 5.469 0 0 0 -1.23 -1.871C120.243 45.521 100.736 37.424 80 37.424c-20.729 0 -40.235 8.097 -54.935 22.789 -0.551 0.551 -0.966 1.185 -1.238 1.871a5.575 5.575 0 0 1 1.238 -6.022c14.699 -14.692 34.206 -22.789 54.935 -22.789 20.736 0 40.243 8.097 54.942 22.789a5.587 5.587 0 0 1 1.23 6.022"/></g><g><path style="fill:#040000;stroke:#040000;stroke-width:13;stroke-miterlimit:10;" d="M80.003 93.722"/></g><g><path style="fill:#040000;" d="M119.314 78.942a5.469 5.469 0 0 0 -1.23 -1.871c-10.187 -10.187 -23.709 -15.794 -38.084 -15.794 -14.367 0 -27.89 5.607 -38.077 15.794 -0.551 0.551 -0.966 1.185 -1.238 1.871a5.575 5.575 0 0 1 1.238 -6.022c10.187 -10.187 23.709 -15.794 38.077 -15.794 14.375 0 27.898 5.607 38.084 15.794a5.556 5.556 0 0 1 1.23 6.022"/></g><g><path style="fill:#040000;" d="M102.457 95.799a5.438 5.438 0 0 0 -1.23 -1.871c-5.675 -5.675 -13.213 -8.806 -21.227 -8.806 -8.006 0 -15.545 3.132 -21.219 8.806a5.469 5.469 0 0 0 -1.238 1.871c-0.807 -2.015 -0.393 -4.399 1.238 -6.022 5.675 -5.675 13.213 -8.806 21.219 -8.806 8.014 0 15.552 3.132 21.227 8.806 1.63 1.622 2.045 4.007 1.23 6.022"/></g><g><path style="fill:#040000;" d="M93.107 120.135c0 0.709 -0.053 1.396 -0.166 2.075 -0.438 -2.792 -1.758 -5.282 -3.667 -7.191 -2.377 -2.377 -5.652 -3.841 -9.274 -3.841a13.05 13.05 0 0 0 -9.267 3.841c-1.909 1.909 -3.23 4.399 -3.675 7.191a12.5 12.5 0 0 1 -0.166 -2.075c0 -3.622 1.472 -6.897 3.841 -9.267A13.047 13.047 0 0 1 80 107.028c3.622 0 6.897 1.464 9.274 3.841 2.369 2.37 3.833 5.644 3.833 9.267"/></g></g><g><g><path style="fill:#040000;stroke:#040000;stroke-width:13;stroke-miterlimit:10;" d="M80.003 97.872"/></g></g></g></g></g><path style="opacity:0.07;fill:#040000;" d="M142.239 29.747c-3.567 -4.414 -7.571 -8.444 -11.986 -11.986C116.522 6.647 99.018 0 80 0v159.974c44.171 0 80 -35.829 80 -80 0 -19.044 -6.647 -36.497 -17.761 -50.228"/></g></svg>