<svg width="160px" height="160px" viewBox="0 0 160 160" version="1.1" xmlns="http://www.w3.org/2000/svg" xmlns:xlink="http://www.w3.org/1999/xlink" preserveAspectRatio="xMidYMid"><g><path d="m67.412 74.151 5.768 5.736 -5.768 5.734H26.813v19.107L2.054 79.886l24.759 -24.425v18.689zm17.846 -48.792h49.331v49.331h-49.331z" fill="#932279"/><path d="m85.797 67.412 -5.734 5.768 -5.734 -5.768V26.813H55.22L80.063 2.054l24.423 24.759h-18.689zm-0.537 17.846h49.33v49.331h-49.331z" fill="#EFA724"/><path d="m92.536 85.797 -5.769 -5.734 5.769 -5.734h40.599V55.22l24.761 24.842 -24.761 24.423v-18.689zm-67.177 -0.537h49.331v49.331H25.358z" fill="#262577"/><path d="m74.151 92.536 5.734 -5.769 5.736 5.769v40.6h19.107l-24.842 24.759 -24.422 -24.759h18.688zM25.358 25.358h49.331v49.331H25.358z" fill="#9CCD2A"/><path d="M23.596 23.596h52.854v52.854H23.596zm3.523 49.331h45.807V27.121H27.119zm56.379 -49.331h52.854v52.854h-52.854zm3.523 49.331h45.807V27.121h-45.807zm-3.523 10.571h52.854v52.856h-52.854zm3.523 49.33h45.807v-45.807h-45.807zm-63.425 -49.33h52.854v52.856H23.596zm3.523 49.33h45.807v-45.807H27.119z" fill="#FFFFFF"/><path d="m37.617 117.349 -37.375 -37.375L37.617 42.6l37.375 37.374zm-32.391 -37.375 32.391 32.391 32.39 -32.391 -32.391 -32.39zm74.748 -4.982L42.6 37.617l37.374 -37.375 37.374 37.375zM47.584 37.617l32.39 32.39 32.391 -32.39 -32.391 -32.391zm74.748 79.731 -37.374 -37.375L122.331 42.6l37.374 37.374zm-32.391 -37.375 32.391 32.391 32.39 -32.391 -32.39 -32.39zm-9.966 79.731L42.6 122.331l37.374 -37.374 37.374 37.374zM47.584 122.331l32.39 32.39 32.391 -32.39 -32.391 -32.39z" fill="#FFFFFF"/></g></svg>