<svg width="160px" height="160px" viewBox="0 0 6.4 6.4" xmlns="http://www.w3.org/2000/svg"><g fill="none" fill-rule="evenodd"><path cx="16" cy="16" r="16" fill="#1C98F7" d="M6.4 3.2A3.2 3.2 0 0 1 3.2 6.4A3.2 3.2 0 0 1 0 3.2A3.2 3.2 0 0 1 6.4 3.2z"/><path fill="#FFF" d="M3.256 4.665a2.3 2.3 0 0 0 0.417 -0.068 1.14 1.14 0 0 0 0.52 0.034 0.2 0.2 0 0 1 0.021 -0.002c0.062 0 0.143 0.036 0.262 0.112v-0.125a0.122 0.122 0 0 1 0.062 -0.106q0.078 -0.044 0.143 -0.1c0.173 -0.146 0.27 -0.342 0.27 -0.548q0 -0.104 -0.032 -0.201 0.079 -0.146 0.125 -0.306A0.92 0.92 0 0 1 5.2 3.862c0 0.281 -0.131 0.543 -0.357 0.735a1.2 1.2 0 0 1 -0.119 0.088v0.292c0 0.101 -0.116 0.158 -0.198 0.099a3 3 0 0 0 -0.24 -0.162 0.6 0.6 0 0 0 -0.074 -0.037q-0.102 0.015 -0.208 0.015c-0.282 0 -0.543 -0.085 -0.749 -0.227zm-1.493 -0.584C1.406 3.778 1.2 3.366 1.2 2.924c0 -0.903 0.852 -1.624 1.891 -1.624s1.892 0.721 1.892 1.624c0 0.903 -0.852 1.624 -1.892 1.624q-0.176 0 -0.346 -0.027c-0.049 0.012 -0.245 0.128 -0.527 0.334 -0.102 0.075 -0.247 0.003 -0.247 -0.123v-0.498a1.8 1.8 0 0 1 -0.209 -0.153m0.99 0.133q0.013 0 0.026 0.002c0.102 0.017 0.207 0.026 0.313 0.026 0.878 0 1.581 -0.596 1.581 -1.318 0 -0.722 -0.703 -1.318 -1.581 -1.318 -0.878 0 -1.581 0.596 -1.581 1.318 0 0.349 0.164 0.678 0.455 0.924 0.073 0.062 0.153 0.118 0.239 0.166 0.048 0.027 0.078 0.078 0.078 0.133v0.287c0.223 -0.15 0.37 -0.221 0.471 -0.221m-0.467 -0.983c-0.137 0 -0.248 -0.11 -0.248 -0.245 0 -0.135 0.111 -0.245 0.248 -0.245s0.248 0.11 0.248 0.245 -0.111 0.245 -0.248 0.245m0.806 0c-0.137 0 -0.248 -0.11 -0.248 -0.245 0 -0.135 0.111 -0.245 0.248 -0.245s0.248 0.11 0.248 0.245 -0.111 0.245 -0.248 0.245m0.806 0c-0.137 0 -0.248 -0.11 -0.248 -0.245 0 -0.135 0.111 -0.245 0.248 -0.245s0.248 0.11 0.248 0.245 -0.111 0.245 -0.248 0.245"/></g></svg>