<svg width="160px" height="160px" viewBox="0 0 3.2 3.2" xmlns="http://www.w3.org/2000/svg" fill="none"><path fill="#2396ED" d="m2.468 0.907 0.03 -0.045 0.052 0.032 0.023 0.017c0.056 0.043 0.174 0.154 0.199 0.337q0.067 -0.012 0.135 -0.012c0.107 0 0.179 0.025 0.219 0.045l0.021 0.011 0.014 0.009 0.038 0.031 -0.013 0.04a0.408 0.408 0 0 1 -0.094 0.146c-0.058 0.06 -0.16 0.13 -0.322 0.14l-0.036 0.001h-0.03c-0.074 0.195 -0.173 0.416 -0.34 0.613a1.42 1.42 0 0 1 -0.348 0.298 1.6 1.6 0 0 1 -0.51 0.194 2.02 2.02 0 0 1 -0.391 0.037c-0.29 0 -0.546 -0.058 -0.703 -0.158 -0.141 -0.09 -0.249 -0.236 -0.321 -0.435A1.661 1.661 0 0 1 0 1.64a0.103 0.103 0 0 1 0.086 -0.103l0.014 -0.001h2.108l0.018 -0.001 0.03 -0.003c0.051 -0.007 0.129 -0.022 0.184 -0.054 -0.066 -0.109 -0.084 -0.236 -0.054 -0.371a0.661 0.661 0 0 1 0.06 -0.162zm-1.89 0.25 0.008 0.001a0.026 0.026 0 0 1 0.015 0.016l0.001 0.008v0.263l-0.001 0.008a0.026 0.026 0 0 1 -0.016 0.016l-0.008 0.001H0.296a0.025 0.025 0 0 1 -0.023 -0.018l-0.001 -0.008V1.182l0.001 -0.008a0.026 0.026 0 0 1 0.016 -0.017l0.008 -0.001h0.282zm0.389 0 0.008 0.001a0.026 0.026 0 0 1 0.016 0.016l0.001 0.008v0.263l-0.001 0.008a0.026 0.026 0 0 1 -0.016 0.016l-0.008 0.001H0.685a0.025 0.025 0 0 1 -0.023 -0.018l-0.001 -0.008V1.183a0.026 0.026 0 0 1 0.017 -0.025l0.008 -0.001zm0.395 0 0.008 0.001a0.026 0.026 0 0 1 0.015 0.016l0.001 0.008v0.263l-0.001 0.008a0.026 0.026 0 0 1 -0.016 0.016l-0.008 0.001H1.08a0.025 0.025 0 0 1 -0.023 -0.018l-0.001 -0.008V1.182l0.001 -0.008a0.026 0.026 0 0 1 0.016 -0.017l0.008 -0.001h0.283zm0.39 0 0.008 0.001a0.026 0.026 0 0 1 0.016 0.016l0.001 0.008v0.263a0.026 0.026 0 0 1 -0.017 0.025l-0.008 0.001H1.471a0.025 0.025 0 0 1 -0.023 -0.018l-0.001 -0.008V1.182l0.001 -0.008a0.026 0.026 0 0 1 0.016 -0.017l0.008 -0.001h0.282zm0.394 0 0.008 0.001a0.026 0.026 0 0 1 0.016 0.016l0.001 0.008v0.263a0.026 0.026 0 0 1 -0.017 0.025l-0.008 0.001H1.864a0.025 0.025 0 0 1 -0.023 -0.018l-0.001 -0.008V1.182l0.001 -0.008a0.026 0.026 0 0 1 0.016 -0.017l0.008 -0.001h0.282zm-1.18 -0.378 0.008 0.001a0.026 0.026 0 0 1 0.015 0.016l0.001 0.008v0.263a0.026 0.026 0 0 1 -0.017 0.025l-0.008 0.001h-0.282a0.025 0.025 0 0 1 -0.023 -0.018l-0.001 -0.008V0.804a0.026 0.026 0 0 1 0.017 -0.024l0.008 -0.001h0.282zm0.395 0 0.008 0.001a0.026 0.026 0 0 1 0.015 0.016l0.001 0.008v0.263a0.026 0.026 0 0 1 -0.017 0.025l-0.008 0.001H1.08a0.025 0.025 0 0 1 -0.023 -0.018l-0.001 -0.008V0.804l0.001 -0.008a0.026 0.026 0 0 1 0.016 -0.016l0.008 -0.001h0.282zm0.391 0c0.011 0 0.02 0.007 0.023 0.018l0.001 0.008v0.263a0.026 0.026 0 0 1 -0.017 0.025l-0.008 0.001H1.471a0.025 0.025 0 0 1 -0.023 -0.018l-0.001 -0.008V0.804l0.001 -0.008a0.026 0.026 0 0 1 0.016 -0.016l0.008 -0.001h0.282zm0 -0.378c0.011 0 0.02 0.007 0.023 0.018l0.001 0.008V0.689a0.026 0.026 0 0 1 -0.017 0.025l-0.008 0.001H1.471a0.025 0.025 0 0 1 -0.023 -0.018l-0.001 -0.008V0.426l0.001 -0.008a0.026 0.026 0 0 1 0.016 -0.016l0.008 -0.001h0.282z"/></svg>