<svg version="1.1" id="Layer_1" xmlns="http://www.w3.org/2000/svg" xmlns:xlink="http://www.w3.org/1999/xlink" x="0px" y="0px" viewBox="0 0 160 160" style="enable-background:new 0 0 510.544 510.544;" xml:space="preserve" width="160" height="160"><g><path x="79.264" y="72.072" style="fill:#F33052;" width="352" height="240.16" d="M24.841 22.587H135.154V97.851H24.841V22.587z"/><path style="fill:#F33052;" d="M137.682 100.363h-115.328V20.08h115.328zm-110.314 -5.014h105.299V25.094h-105.299z"/></g><g style="opacity:0.35;"><path style="fill:#FFFFFF;" points="71.2,63.832 207.2,63.832 71.2,146.84 	" d="M22.313 20.004L64.935 20.004L22.313 46.018Z"/></g><path d="M160 139.996H0l24.836 -47.154h110.329zm-143.383 -10.029h126.76l-14.271 -27.097H30.888z"/><path x="108.448" y="363.48" width="297.312" height="16" d="M33.987 113.911H127.162V118.926H33.987V113.911z"/><g><path style="fill:#FFFFFF;" d="M53.116 46.926v16.397c0 3.054 -0.506 5.079 -1.514 6.077s-3.064 1.499 -6.163 1.499c-3.294 0 -5.435 -0.486 -6.413 -1.444 -0.983 -0.963 -1.474 -3.069 -1.474 -6.323l0.055 -1.76h4.297c0.07 0.883 0.105 1.549 0.105 1.986 0 0.416 0.02 0.923 0.055 1.514 0.07 1.439 1.213 2.161 3.43 2.161 1.324 0 2.176 -0.261 2.552 -0.777s0.567 -1.68 0.567 -3.485v-15.845z"/><path style="fill:#FFFFFF;" d="M71.674 66.126h-10.254l-1.479 4.558h-4.769l7.902 -23.758h6.769l8.028 23.758h-4.683zm-1.048 -3.324 -4.107 -12.38 -4.036 12.38z"/><path style="fill:#FFFFFF;" d="M95.136 46.926h4.769l-7.657 23.758H85.318l-7.587 -23.758h4.683L86.872 60.384c0.416 1.289 1.038 3.45 1.86 6.473h0.12l0.451 -1.62c0.557 -2.016 1.033 -3.63 1.429 -4.839z"/><path style="fill:#FFFFFF;" d="M116.246 66.126h-10.254l-1.479 4.558h-4.769l7.902 -23.758h6.769l8.028 23.758H117.76zm-1.043 -3.324 -4.107 -12.38 -4.036 12.38z"/></g></svg>