<svg xmlns="http://www.w3.org/2000/svg" viewBox="0 0 48 48" width="48" height="48" role="img" aria-labelledby="title desc">
  <title id="title">LangChain4j</title>
  <desc id="desc">LangChain4j logo thumbnail</desc>
  <defs>
    <linearGradient id="lc-bg" x1="6" y1="6" x2="42" y2="42" gradientUnits="userSpaceOnUse">
      <stop offset="0" stop-color="#111827" />
      <stop offset="1" stop-color="#1f7a5a" />
    </linearGradient>
  </defs>
  <rect width="48" height="48" rx="12" fill="url(#lc-bg)" />
  <path
    d="M16 14.5A3.5 3.5 0 0 1 19.5 11H31a3 3 0 0 1 3 3v11.5A3.5 3.5 0 0 1 30.5 29H20a2 2 0 0 0-2 2v4.5"
    fill="none"
    stroke="#fff"
    stroke-linecap="round"
    stroke-linejoin="round"
    stroke-width="3"
  />
  <path
    d="M32 33.5A3.5 3.5 0 0 1 28.5 37H17a3 3 0 0 1-3-3V22.5A3.5 3.5 0 0 1 17.5 19H28a2 2 0 0 0 2-2v-4.5"
    fill="none"
    stroke="#7ff0c6"
    stroke-linecap="round"
    stroke-linejoin="round"
    stroke-width="3"
  />
</svg>
