<svg version="1.1" id="Layer_1" xmlns="http://www.w3.org/2000/svg" xmlns:xlink="http://www.w3.org/1999/xlink" x="0px" y="0px" viewBox="0 0 160 160" style="enable-background:new 0 0 512 512;" xml:space="preserve" width="160" height="160"><path style="fill:#4DBFBF;" d="M26.087 0C17.456 0 10.435 7.021 10.435 15.652v128.696c0 8.631 7.021 15.652 15.652 15.652h26.087V0z"/><path style="fill:#E6563A;" d="M144.348 0H41.739v160h102.609C152.979 160 160 152.979 160 144.348V15.652C160 7.021 152.979 0 144.348 0"/><path style="fill:#D9472B;" d="M144.348 0h-43.478v160h43.478C152.979 160 160 152.979 160 144.348V15.652C160 7.021 152.979 0 144.348 0"/><g><path style="fill:#CCE8FF;" d="M26.087 38.261H5.218C2.337 38.261 0 35.926 0 33.043s2.337 -5.218 5.218 -5.218h20.87c2.88 0 5.218 2.335 5.218 5.218s-2.338 5.218 -5.218 5.218"/><path style="fill:#CCE8FF;" d="M26.087 69.565H5.218C2.337 69.565 0 67.23 0 64.348s2.337 -5.218 5.218 -5.218h20.87c2.88 0 5.218 2.335 5.218 5.218s-2.338 5.218 -5.218 5.218"/><path style="fill:#CCE8FF;" d="M26.087 100.87H5.218C2.337 100.87 0 98.534 0 95.652s2.337 -5.218 5.218 -5.218h20.87c2.88 0 5.218 2.335 5.218 5.218s-2.338 5.218 -5.218 5.218"/><path style="fill:#CCE8FF;" d="M26.087 132.174H5.218C2.337 132.174 0 129.839 0 126.957s2.337 -5.218 5.218 -5.218h20.87c2.88 0 5.218 2.335 5.218 5.218 0 2.882 -2.338 5.218 -5.218 5.218"/></g><path style="fill:#FFEFD9;" d="M133.913 38.261H67.826c-2.88 0 -5.218 -2.335 -5.218 -5.218s2.337 -5.218 5.218 -5.218h66.087c2.88 0 5.218 2.335 5.218 5.218s-2.337 5.218 -5.217 5.218"/><path style="fill:#FFD9B3;" d="M133.913 27.826H100.87v10.435h33.043c2.88 0 5.218 -2.335 5.218 -5.218s-2.337 -5.217 -5.218 -5.217"/><path style="fill:#FFEFD9;" d="M100.87 128.759c-1.209 0 -2.418 -0.419 -3.397 -1.257 -4.036 -3.459 -7.809 -6.518 -11.257 -9.314 -13.763 -11.158 -23.709 -19.221 -23.709 -32.284 0 -12.902 9.572 -23.009 21.79 -23.009 7.952 0 13.227 4.081 16.572 8.361 3.346 -4.28 8.621 -8.361 16.572 -8.361 12.218 0 21.79 10.107 21.79 23.009 0 13.064 -9.946 21.126 -23.709 32.284 -3.447 2.796 -7.222 5.854 -11.257 9.314a5.213 5.213 0 0 1 -3.396 1.257"/><path style="fill:#FFD9B3;" d="M104.267 127.502c4.036 -3.459 7.809 -6.518 11.257 -9.314 13.763 -11.158 23.709 -19.221 23.709 -32.284 0 -12.902 -9.572 -23.009 -21.79 -23.009 -7.952 0 -13.227 4.081 -16.572 8.361v57.503c1.209 0 2.418 -0.42 3.397 -1.257"/></svg>