<svg width="200px" height="200px" viewBox="0 0 200 200" role="img" xmlns="http://www.w3.org/2000/svg"><title>OpenAI icon</title><path d="M185.683 81.842a49.917 49.917 0 0 0 -4.3 -40.917 50.417 50.417 0 0 0 -54.25 -24.167A50.542 50.542 0 0 0 41.508 34.833a49.917 49.917 0 0 0 -33.317 24.167 50.417 50.417 0 0 0 6.192 59.142 49.833 49.833 0 0 0 4.25 40.925 50.417 50.417 0 0 0 54.292 24.167A49.917 49.917 0 0 0 110.5 200a50.5 50.5 0 0 0 48.1 -35.05 50 50 0 0 0 33.308 -24.167 50.5 50.5 0 0 0 -6.225 -58.942zM110.5 186.917a37.333 37.333 0 0 1 -23.967 -8.667l1.175 -0.675 39.825 -22.983a6.667 6.667 0 0 0 3.267 -5.675v-56.142l16.833 9.733a0.583 0.583 0 0 1 0.317 0.433v46.525a37.533 37.533 0 0 1 -37.45 37.45M30 152.533a37.25 37.25 0 0 1 -4.458 -25.117l1.183 0.708 39.858 22.992a6.417 6.417 0 0 0 6.5 0l48.692 -28.075v19.433a0.667 0.667 0 0 1 -0.275 0.517L81.167 166.25a37.5 37.5 0 0 1 -51.167 -13.717M19.5 65.8a37.5 37.5 0 0 1 19.717 -16.442V96.667a6.417 6.417 0 0 0 3.233 5.642l48.458 27.95 -16.833 9.733a0.667 0.667 0 0 1 -0.592 0l-40.25 -23.217A37.533 37.533 0 0 1 19.5 65.6zm138.308 32.125 -48.608 -28.225L125.992 60a0.667 0.667 0 0 1 0.592 0l40.25 23.258a37.45 37.45 0 0 1 -5.633 67.542v-47.317a6.583 6.583 0 0 0 -3.392 -5.558zm16.75 -25.192 -1.175 -0.708 -39.783 -23.183a6.5 6.5 0 0 0 -6.542 0L78.408 76.917V57.475a0.583 0.583 0 0 1 0.233 -0.508l40.25 -23.225a37.5 37.5 0 0 1 55.667 38.833zm-105.333 34.458 -16.833 -9.7a0.667 0.667 0 0 1 -0.317 -0.475V50.625a37.5 37.5 0 0 1 61.458 -28.775l-1.183 0.667 -39.817 22.983a6.667 6.667 0 0 0 -3.275 5.675zm9.142 -19.708 21.683 -12.5 21.725 12.5v24.992l-21.642 12.5 -21.725 -12.5Z"/></svg>