<svg version="1.1" id="Layer_1" xmlns="http://www.w3.org/2000/svg" xmlns:xlink="http://www.w3.org/1999/xlink" x="0px" y="0px" viewBox="0 0 160 160" style="enable-background:new 0 0 512 512;" xml:space="preserve" width="160" height="160"><path style="fill:#027372;" d="M138.901 47.473h-10.549l10.549 87.912 10.549 -7.033V58.022c0 -5.802 -4.747 -10.549 -10.549 -10.549"/><path style="fill:#02ACAB;" d="M128.352 47.473H21.099c-5.802 0 -10.549 4.747 -10.549 10.549v70.33l128.352 7.033V58.022c0 -5.802 -4.747 -10.549 -10.549 -10.549"/><path style="fill:#969696;" d="M149.451 135.385 138.901 160h10.549C155.253 160 160 155.253 160 149.451v-7.033z"/><path style="fill:#B9B9B9;" d="M149.451 149.451v-14.066L0 142.417v7.033C0 155.253 4.747 160 10.549 160h128.352c5.803 0 10.55 -4.747 10.55 -10.549"/><path style="fill:#737373;" d="M77.362 138.901v10.549a2.637 2.637 0 0 0 2.637 2.637 2.637 2.637 0 0 0 2.637 -2.637v-10.549z"/><path style="fill:#DCDCDC;" points="478.242,410.725 444.484,410.725 428.179,433.231 478.242,455.736 512,455.736 " d="M149.451 128.352L138.901 128.352L133.806 135.385L149.451 142.417L160 142.417Z"/><path style="fill:#D5F6F5;" points="33.758,410.725 0,455.736 478.242,455.736 444.484,410.725 " d="M10.549 128.352L0 142.417L149.451 142.417L138.901 128.352Z"/><path style="fill:#81E3E2;" points="256,0 295.385,303.824 329.143,303.824 329.143,118.154 374.154,118.154 " d="M80 0L92.308 94.945L102.857 94.945L102.857 36.923L116.923 36.923Z"/><path style="fill:#ABECEC;" points="137.846,118.154 182.857,118.154 182.857,303.824 295.385,303.824 295.385,118.154
	340.396,118.154 256,0 " d="M43.077 36.923L57.143 36.923L57.143 94.945L92.308 94.945L92.308 36.923L106.374 36.923L80 0Z"/><g><path style="fill:#272727;" cx="256" cy="210.989" r="8.44" d="M82.638 65.934A2.637 2.637 0 0 1 80 68.572A2.637 2.637 0 0 1 77.362 65.934A2.637 2.637 0 0 1 82.638 65.934z"/><path style="fill:#272727;" cx="216.615" cy="210.989" r="8.44" d="M70.33 65.934A2.637 2.637 0 0 1 67.692 68.572A2.637 2.637 0 0 1 65.055 65.934A2.637 2.637 0 0 1 70.33 65.934z"/><path style="fill:#272727;" cx="295.385" cy="210.989" r="8.44" d="M94.945 65.934A2.637 2.637 0 0 1 92.308 68.572A2.637 2.637 0 0 1 89.67 65.934A2.637 2.637 0 0 1 94.945 65.934z"/></g></svg>