<?xml version="1.0" standalone="no"?>
<!DOCTYPE svg PUBLIC "-//W3C//DTD SVG 20010904//EN"
 "http://www.w3.org/TR/2001/REC-SVG-20010904/DTD/svg10.dtd">
<svg version="1.0" xmlns="http://www.w3.org/2000/svg"
 width="500.000000pt" height="500.000000pt" viewBox="0 0 500.000000 500.000000"
 preserveAspectRatio="xMidYMid meet">

<g transform="translate(0.000000,500.000000) scale(0.100000,-0.100000)"
fill="#000000" stroke="none">
<path d="M2333 3849 c-207 -27 -425 -127 -586 -271 -74 -66 -176 -192 -227
-281 -35 -60 -37 -62 -80 -65 -116 -7 -247 -45 -349 -99 -222 -118 -380 -321
-452 -583 -20 -73 -23 -108 -23 -245 1 -133 4 -173 23 -238 49 -179 117 -301
229 -419 89 -93 183 -158 301 -208 159 -68 91 -65 1416 -65 l1200 0 69 23
c293 98 488 336 537 654 28 182 -51 425 -186 576 -141 157 -334 243 -554 247
l-105 2 -17 79 c-53 239 -154 430 -312 588 -233 233 -563 347 -884 305z m272
-293 c170 -33 303 -104 425 -226 165 -165 247 -363 266 -642 l7 -98 208 0
c226 0 278 -8 379 -57 102 -49 199 -172 229 -288 18 -67 13 -185 -10 -255 -37
-112 -144 -241 -240 -291 -108 -55 -81 -53 -799 -52 -703 1 -689 0 -820 47
-172 63 -379 231 -485 394 -87 135 -124 247 -144 434 -38 348 122 716 394 905
164 114 401 166 590 129z"/>
<path d="M3058 2408 c-89 -52 -92 -183 -4 -237 130 -81 279 84 184 204 -43 55
-118 69 -180 33z"/>
</g>
</svg>
