<svg width="160px" height="160px" viewBox="0 0 160 160" version="1.1" xmlns="http://www.w3.org/2000/svg" xmlns:xlink="http://www.w3.org/1999/xlink" preserveAspectRatio="xMidYMid"><g><path d="M24.34 22.424c31.612 -30.624 82.159 -29.801 112.783 1.976 3.458 -4.61 6.421 -9.714 8.562 -14.983 10.044 30.624 16.136 56.309 13.83 76.231 -1.153 16.794 -7.738 32.929 -18.605 45.772 -28.319 33.588 -78.701 37.869 -112.289 9.55l-0.643 -0.572 -0.034 -0.022q-0.158 -0.11 -0.311 -0.229 -0.459 -0.358 -0.835 -0.775l-0.09 -0.103 -1.05 -0.933c-1.025 -0.878 -2.049 -1.756 -2.958 -2.75l-0.335 -0.379c-30.625 -31.612 -29.637 -82.159 1.975 -112.783M36.194 129.61c-2.964 -2.305 -7.244 -1.976 -9.55 0.988 -2.026 2.606 -2.016 6.231 0.031 8.634l0.033 0.037 1.271 1.129 0.125 0.085c2.877 1.893 6.75 1.501 8.958 -1.174l0.121 -0.151c2.305 -2.964 1.811 -7.244 -0.988 -9.55M144.863 17.649C136.629 34.938 116.213 48.109 98.596 52.226c-16.629 3.951 -31.119 0.659 -46.431 6.586 -34.905 13.337 -34.246 54.828 -15.148 64.212l1.153 0.659s13.796 -2.743 27.439 -6.366l1.169 -0.313c5.449 -1.469 10.809 -3.069 15.189 -4.683 22.721 -8.397 47.748 -29.142 55.98 -53.181 -4.281 25.026 -25.849 49.229 -47.419 60.261 -11.525 5.927 -20.416 7.244 -39.35 13.83 -2.305 0.823 -4.116 1.647 -4.116 1.647l0.693 -0.094 0.46 -0.059 0.458 -0.057c4.181 -0.519 7.939 -0.777 7.939 -0.777 26.837 -1.318 68.987 7.574 88.581 -18.605 20.087 -26.673 8.891 -69.811 -0.329 -97.636" fill="#6DB33F"/><path d="M36.194 129.61c2.799 2.305 3.293 6.586 0.988 9.549 -2.304 2.964 -6.586 3.293 -9.549 0.988s-3.292 -6.586 -0.988 -9.549 6.586 -3.292 9.55 -0.988M144.863 17.649c9.22 27.826 20.416 70.963 0.329 97.636 -19.594 26.179 -61.743 17.288 -88.581 18.605 0 0 -3.757 0.259 -7.939 0.777l-0.458 0.057q-0.574 0.073 -1.153 0.153s1.811 -0.824 4.116 -1.647c18.934 -6.586 27.825 -7.903 39.35 -13.83 21.569 -11.031 43.138 -35.235 47.419 -60.261 -8.232 24.039 -33.259 44.784 -55.98 53.181 -15.641 5.763 -43.796 11.361 -43.796 11.361l-1.153 -0.659c-19.099 -9.385 -19.758 -50.876 15.148 -64.212 15.313 -5.927 29.801 -2.634 46.431 -6.586 17.617 -4.116 38.033 -17.288 46.266 -34.576" fill="#FFFFFF"/></g></svg>