<svg width="160px" height="160px" viewBox="0 -1.72 20.042 20.042" xmlns="http://www.w3.org/2000/svg"><path fill="#3B97D3" d="M17.357 5.788c0.029 -0.189 0.049 -0.381 0.049 -0.578 0 -2.094 -1.698 -3.792 -3.791 -3.792a3.766 3.766 0 0 0 -2.009 0.581C10.693 0.798 9.251 0.022 7.628 0.022c-2.755 0 -4.989 2.234 -4.989 4.989 0 0.263 0.021 0.521 0.06 0.773C1.16 6.267 0.044 7.704 0.044 9.401c0 2.094 1.698 3.791 3.791 3.791h12.373c2.095 0 3.793 -1.697 3.793 -3.791 0 -1.693 -1.11 -3.127 -2.643 -3.613"/><path fill="#66B5E4" d="M4.222 10.6h11.557v6H4.222z"/><path fill="#53A4DB" d="M6.807 13.8h6.4l-2.8 2.8H4.228l-0.006 -0.194z"/><path fill="#6BC9F2" d="M13.599 8.398 15.779 10.6H4.222l2.177 -2.198z"/><path fill="#EBECED" d="M5.801 5.2h8.391l0.009 1.597V10h-8.4z"/><g fill="#2880BA"><path cx="65.502" cy="68" r="3" d="M13.7 13.6A0.6 0.6 0 0 1 13.1 14.2A0.6 0.6 0 0 1 12.5 13.6A0.6 0.6 0 0 1 13.7 13.6z"/><path cx="34.502" cy="68" r="3" d="M7.5 13.6A0.6 0.6 0 0 1 6.9 14.2A0.6 0.6 0 0 1 6.3 13.6A0.6 0.6 0 0 1 7.5 13.6z"/></g><path fill="#BDC2C7" d="M7.801 6.6v0.4h4.4v-0.4zm0 1.2h4.4v-0.4h-4.4zm0 0.8h4.4v-0.4h-4.4z"/><path fill="#DADADB" d="M5.801 10v-0.4h8.4v0.4z"/><path fill="#EBECED" d="M7.201 13.2h5.6a0.4 0.4 0 0 1 0 0.8h-5.6a0.4 0.4 0 0 1 0 -0.8"/><path fill="#DADADB" d="M13.2 13.6h-6.4a0.4 0.4 0 0 0 0.4 0.4h5.6a0.4 0.4 0 0 0 0.4 -0.4"/></svg>