<svg version="1.1" id="Layer_1" xmlns="http://www.w3.org/2000/svg" xmlns:xlink="http://www.w3.org/1999/xlink" x="0px" y="0px" viewBox="0 0 160 160" style="enable-background:new 0 0 512 512;" xml:space="preserve" width="160" height="160"><path style="fill:#F97316;" cx="256" cy="256" r="256" d="M160 80A80 80 0 0 1 80 160A80 80 0 0 1 0 80A80 80 0 0 1 160 80z"/><g><path style="fill:#FFFFFF;" cx="256" cy="115.504" r="41.248" d="M92.89 36.095A12.89 12.89 0 0 1 80 48.985A12.89 12.89 0 0 1 67.11 36.095A12.89 12.89 0 0 1 92.89 36.095z"/><path style="fill:#FFFFFF;" d="m79.39 78.955 -12.455 -27.005s-13.065 0.175 -13.065 12.195v14.81z"/><path style="fill:#FFFFFF;" d="m80.61 78.955 12.455 -27.005s13.065 0.175 13.065 12.195v14.81z"/></g><path points="256,167.776 228.672,167.776 256,228.272 283.328,167.776 " d="M80 52.43L71.46 52.43L80 71.335L88.54 52.43Z"/><g><path style="fill:#FFFFFF;" d="M50.815 107.86v19.365h-4.425v-19.365H39.65v-3.965h18.135v3.965z"/><path style="fill:#FFFFFF;" d="M63.985 107.625v6.015h10.94v3.26h-10.94v6.6H75.625v3.725h-16.065v-23.33h15.955V107.625z"/><path style="fill:#FFFFFF;" d="M93.335 118.905h4.445v0.8c0 3.245 -0.59 5.345 -1.775 6.3 -1.18 0.95 -3.805 1.425 -7.86 1.425 -4.6 0 -7.43 -0.75 -8.49 -2.255s-1.585 -5.525 -1.585 -12.065c0 -3.855 0.715 -6.38 2.15 -7.6 1.435 -1.21 4.44 -1.82 9.01 -1.82 3.325 0 5.545 0.505 6.665 1.5s1.675 2.975 1.675 5.94l0.015 0.53h-4.445v-0.6c0 -1.53 -0.285 -2.505 -0.86 -2.93 -0.575 -0.43 -1.89 -0.64 -3.94 -0.64 -2.745 0 -4.395 0.33 -4.945 1.005s-0.83 2.665 -0.83 5.98c0 4.47 0.25 7.11 0.74 7.93 0.5 0.82 2.1 1.23 4.815 1.23 2.195 0 3.625 -0.23 4.275 -0.685s0.985 -1.46 0.985 -3.01z"/><path style="fill:#FFFFFF;" d="M120.35 103.895v23.33h-4.43v-10.085h-10.94v10.085h-4.425v-23.33h4.425v9.52h10.94v-9.52z"/></g></svg>