<svg width="160px" height="160px" viewBox="0 0 6.4 6.4" xmlns="http://www.w3.org/2000/svg"><title>folder_type_template_opened</title><path d="M5.48 1.1h-1.84l-0.42 0.84H0.86v3.36h5.04v-4.2Zm0 3.74H1.32V2.36h4.16Zm0 -2.9h-1.64l0.2 -0.42h1.42v0.42Z" style="fill:#dbad7b"/><path points="25.7 13.7 0.5 13.7 4.3 26.5 29.5 26.5 25.7 13.7" style="fill:#dbad7b" d="M5.14 2.74L0.1 2.74L0.86 5.3L5.9 5.3L5.14 2.74Z"/><path d="M5.805 2.876H2.395A0.396 0.396 0 0 0 2 3.271v2.535A0.396 0.396 0 0 0 2.395 6.2h3.41A0.396 0.396 0 0 0 6.2 5.805V3.271a0.396 0.396 0 0 0 -0.395 -0.395" style="fill:#675f58"/><path d="M5.985 5.805a0.181 0.181 0 0 1 -0.18 0.18H2.395a0.181 0.181 0 0 1 -0.18 -0.18V3.524h3.77v2.281Z" style="fill:#ccc"/><path x="14.9" y="20.246" width="2.8" height="2.801" style="fill:#ff931e" d="M2.98 4.049H3.54V4.609H2.98V4.049z"/><path x="19.1" y="20.246" width="2.8" height="2.801" style="fill:#ff931e" d="M3.82 4.049H4.38V4.609H3.82V4.049z"/><path x="23.3" y="20.246" width="2.8" height="2.801" style="fill:#ff931e" d="M4.66 4.049H5.22V4.609H4.66V4.049z"/><path x="14.9" y="24.446" width="2.8" height="2.8" style="fill:#ff931e" d="M2.98 4.889H3.54V5.449H2.98V4.889z"/><path x="19.1" y="24.446" width="2.8" height="2.8" style="fill:#ff931e" d="M3.82 4.889H4.38V5.449H3.82V4.889z"/><path x="23.3" y="24.446" width="2.8" height="2.8" style="fill:#ff931e" d="M4.66 4.889H5.22V5.449H4.66V4.889z"/></svg>