<svg version="1.1" id="Layer_1" xmlns="http://www.w3.org/2000/svg" xmlns:xlink="http://www.w3.org/1999/xlink" x="0px" y="0px" viewBox="0 0 160 160" style="enable-background:new 0 0 512.001 512.001;" xml:space="preserve" width="160" height="160"><path style="fill:#E4EAF8;" d="M115.862 135.173H5.517C2.47 135.173 0 132.703 0 129.655V35.862c0 -3.047 2.47 -5.517 5.517 -5.517h110.344c3.047 0 5.517 2.47 5.517 5.517v93.793c0 3.047 -2.47 5.517 -5.517 5.517"/><g><path style="fill:#D5DCED;" d="m121.379 60.69 -39.803 39.803 -7.073 15.158c-0.877 1.879 1.072 3.827 2.95 2.95l15.157 -7.074 28.769 -28.769z"/><path style="fill:#D5DCED;" d="M115.862 30.345H11.034v8.276a2.759 2.759 0 0 0 2.759 2.759h107.586V35.862c0 -3.047 -2.47 -5.517 -5.517 -5.517"/></g><path x="317.793" y="97.104" style="fill:#FFF082;" width="35.31" height="35.31" d="M99.31 30.345H110.344V41.379H99.31V30.345z"/><path x="282.483" y="97.104" style="fill:#FF5050;" width="35.31" height="35.31" d="M88.276 30.345H99.31V41.379H88.276V30.345z"/><path style="fill:#A0FFB4;" d="M121.379 41.38h-11.034v-11.034h5.517c3.047 0 5.517 2.47 5.517 5.517z"/><path style="fill:#FFFFFF;" d="M113.103 129.655H8.276a2.759 2.759 0 0 1 -2.759 -2.759V49.655a2.759 2.759 0 0 1 2.759 -2.759h104.827a2.759 2.759 0 0 1 2.759 2.759V126.897a2.759 2.759 0 0 1 -2.759 2.758"/><path style="fill:#E4EAF8;" d="M115.862 66.207 81.576 100.493l-7.073 15.158c-0.877 1.879 1.072 3.827 2.95 2.95l15.157 -7.074 23.252 -23.252z"/><path style="fill:#5B5D6E;" d="m71.739 116.039 13.396 -6.251a11.031 11.031 0 0 0 3.136 -2.197l70.92 -70.92a2.759 2.759 0 0 0 0 -3.901l-7.133 -7.133a2.759 2.759 0 0 0 -3.901 0L77.237 96.557a11.031 11.031 0 0 0 -2.197 3.136l-6.251 13.396c-0.877 1.878 1.071 3.827 2.95 2.95"/><g><path style="fill:#464655;" d="M147.349 37.478 69.23 115.597c0.612 0.612 1.569 0.88 2.508 0.442l13.396 -6.251a11.031 11.031 0 0 0 3.136 -2.197l64.596 -64.595z"/><path style="fill:#464655;" d="M57.931 55.173h-5.517a2.758 2.758 0 0 0 -2.759 2.759c0 1.089 0.645 2.011 1.562 2.459l-7.079 17.7 -6.961 -17.4h1.444c1.525 0 2.759 -1.235 2.759 -2.759s-1.234 -2.759 -2.759 -2.759h-5.517a2.759 2.759 0 0 0 -2.284 1.212 2.766 2.766 0 0 0 -0.277 2.571l2.348 5.871 -5.303 13.262 -6.961 -17.399h1.444c1.525 0 2.759 -1.235 2.759 -2.759s-1.234 -2.759 -2.759 -2.759H16.552a2.759 2.759 0 0 0 -2.284 1.212 2.766 2.766 0 0 0 -0.277 2.571l11.034 27.586c0.42 1.047 1.433 1.733 2.562 1.733s2.142 -0.687 2.562 -1.733l5.714 -14.285 5.714 14.285a2.761 2.761 0 0 0 5.124 0l10.341 -25.853h0.89c1.525 0 2.759 -1.235 2.759 -2.759s-1.234 -2.758 -2.759 -2.758"/></g><path style="fill:#959CB5;" d="M55.172 104.828H16.552c-1.525 0 -2.759 -1.235 -2.759 -2.759s1.234 -2.759 2.759 -2.759h38.621c1.525 0 2.759 1.235 2.759 2.759s-1.234 2.759 -2.759 2.759"/><path style="fill:#7F8499;" d="M99.31 60.69h-27.586c-1.525 0 -2.759 -1.235 -2.759 -2.759s1.234 -2.759 2.759 -2.759h27.586c1.525 0 2.759 1.235 2.759 2.759s-1.234 2.759 -2.759 2.759"/><path style="fill:#707487;" d="M88.276 71.724h-16.552c-1.525 0 -2.759 -1.235 -2.759 -2.759s1.234 -2.759 2.759 -2.759h16.552c1.525 0 2.759 1.235 2.759 2.759s-1.234 2.759 -2.759 2.759"/><path style="fill:#959CB5;" d="M44.138 115.862H16.552a2.758 2.758 0 0 1 -2.759 -2.759 2.758 2.758 0 0 1 2.759 -2.759h27.586a2.758 2.758 0 0 1 2.759 2.759 2.758 2.758 0 0 1 -2.759 2.759"/><path style="fill:#7F8499;" d="M91.034 104.828 80 93.793l-2.763 2.763a11.031 11.031 0 0 0 -2.197 3.136l-6.251 13.396c-0.877 1.879 1.072 3.827 2.95 2.95l13.396 -6.251a11.031 11.031 0 0 0 3.136 -2.197z"/><path style="fill:#707487;" d="m85.517 99.31 -16.287 16.287c0.612 0.612 1.569 0.88 2.508 0.442l13.396 -6.251a11.031 11.031 0 0 0 3.136 -2.197l2.763 -2.763z"/><path style="fill:#7F8499;" d="M152.059 25.636a2.758 2.758 0 0 0 -3.901 0l-6.325 6.325 11.034 11.034 6.325 -6.325a2.758 2.758 0 0 0 0 -3.901z"/><path style="fill:#707487;" d="m159.192 32.769 -3.567 -3.567 -8.276 8.276 5.517 5.517 6.325 -6.325c1.077 -1.077 1.077 -2.824 0 -3.901"/></svg>