<svg version="1.1" id="Layer_1" xmlns="http://www.w3.org/2000/svg" xmlns:xlink="http://www.w3.org/1999/xlink" x="0px" y="0px" viewBox="0 0 160 160" style="enable-background:new 0 0 512 512;" xml:space="preserve" width="160" height="160"><path style="fill:#F8F8F9;" points="345.6,0 51.2,0 51.2,512 460.8,512 460.8,115.2 " d="M108 0L16 0L16 160L144 160L144 36Z"/><path style="fill:#EDEDED;" points="345.6,115.2 345.6,0 256,0 256,512 460.8,512 460.8,115.2 " d="M108 36L108 0L80 0L80 160L144 160L144 36Z"/><path x="51.2" y="230.4" style="fill:#EFC27B;" width="409.6" height="204.8" d="M16 72H144V136H16V72z"/><path x="256" y="230.4" style="fill:#ECB45C;" width="204.8" height="204.8" d="M80 72H144V136H80V72z"/><g><path style="fill:#F8F8F9;" d="M71.036 90.44h5.327l9.324 25.56h-6.048l-1.98 -5.724h-7.956l-1.944 5.724h-6.048zm5.652 15.768 -2.988 -9.036 -3.06 9.036z"/><path style="fill:#F8F8F9;" d="M90.008 116v-25.56h5.904V116z"/></g></svg>