<svg fill="#000000" width="160px" height="160px" viewBox="0 0 4.8 4.8" xmlns="http://www.w3.org/2000/svg" data-name="Layer 1"><path d="M2.4 0.449a2 2 0 0 0 -0.632 3.897c0.1 0.018 0.137 -0.042 0.137 -0.095 0 -0.047 -0.002 -0.205 -0.002 -0.372 -0.503 0.092 -0.633 -0.123 -0.673 -0.235a0.728 0.728 0 0 0 -0.205 -0.283c-0.07 -0.037 -0.17 -0.13 -0.003 -0.132a0.4 0.4 0 0 1 0.308 0.205 0.427 0.427 0 0 0 0.582 0.165 0.42 0.42 0 0 1 0.128 -0.268c-0.445 -0.05 -0.91 -0.222 -0.91 -0.987a0.78 0.78 0 0 1 0.205 -0.538 0.72 0.72 0 0 1 0.02 -0.53s0.167 -0.052 0.55 0.205a1.886 1.886 0 0 1 1 0c0.382 -0.26 0.55 -0.205 0.55 -0.205a0.72 0.72 0 0 1 0.02 0.53 0.774 0.774 0 0 1 0.205 0.538c0 0.767 -0.468 0.937 -0.912 0.987a0.474 0.474 0 0 1 0.135 0.37c0 0.268 -0.002 0.483 -0.002 0.55 0 0.053 0.037 0.115 0.137 0.095A2.001 2.001 0 0 0 2.4 0.449"/></svg>