<svg width="160px" height="160px" viewBox="0 -2.8 20 20" xmlns="http://www.w3.org/2000/svg"><path fill="#E7F7FF" d="M0 0h20v8.8H0z"/><path fill="#3498DB" d="m16.8 13.84 2.788 -2.788V7.789C19.366 7.748 19.2 7.59 19.2 7.4h-0.2c0 0.221 -0.224 0.4 -0.5 0.4s-0.5 -0.179 -0.5 -0.4h-0.2c0 0.221 -0.224 0.4 -0.5 0.4s-0.5 -0.179 -0.5 -0.4h-0.2c0 0.221 -0.224 0.4 -0.5 0.4s-0.5 -0.179 -0.5 -0.4h-0.2c0 0.221 -0.224 0.4 -0.5 0.4s-0.5 -0.179 -0.5 -0.4h-0.2c0 0.221 -0.224 0.4 -0.5 0.4s-0.5 -0.179 -0.5 -0.4h-0.2c0 0.221 -0.224 0.4 -0.5 0.4s-0.5 -0.179 -0.5 -0.4h-0.2c0 0.221 -0.224 0.4 -0.5 0.4s-0.5 -0.179 -0.5 -0.4h-0.2c0 0.221 -0.224 0.4 -0.5 0.4s-0.5 -0.179 -0.5 -0.4h-0.2c0 0.221 -0.224 0.4 -0.5 0.4s-0.5 -0.179 -0.5 -0.4h-0.2c0 0.221 -0.224 0.4 -0.5 0.4s-0.5 -0.179 -0.5 -0.4h-0.2c0 0.221 -0.224 0.4 -0.5 0.4s-0.5 -0.179 -0.5 -0.4h-0.2c0 0.221 -0.224 0.4 -0.5 0.4s-0.5 -0.179 -0.5 -0.4h-0.2c0 0.221 -0.224 0.4 -0.5 0.4s-0.5 -0.179 -0.5 -0.4h-0.2c0 0.221 -0.224 0.4 -0.5 0.4s-0.5 -0.179 -0.5 -0.4h-0.2c0 0.221 -0.224 0.4 -0.5 0.4s-0.5 -0.179 -0.5 -0.4H1c0 0.221 -0.224 0.4 -0.5 0.4s-0.5 -0.179 -0.5 -0.4V13.84z"/><path fill="#2F89C5" d="M13 9.2v0.4h6.8v-0.4zm0.4 1.2h6.4v-0.4H13.4zm-0.4 0.8h6.2v-0.4H13zm1.2 0.8h3.6v-0.4H14.2z"/><path fill="#2C81BA" d="M14.16 13.84H16.8V11.2z"/><path fill="#F39C12" d="M3.145 11.577c0.306 0 0.554 -0.198 0.554 -0.443h0.221c0 0.245 0.248 0.443 0.554 0.443s0.554 -0.198 0.554 -0.443h0.221c0 0.245 0.248 0.443 0.554 0.443s0.554 -0.198 0.554 -0.443h0.221c0 0.245 0.248 0.443 0.554 0.443s0.554 -0.198 0.554 -0.443h0.221c0 0.245 0.248 0.443 0.554 0.443 0.068 0 0.134 -0.011 0.194 -0.029l1.947 -1.947s-7.195 -0.001 -7.2 0h-0.8V11.2c0.039 0.212 0.267 0.377 0.545 0.377"/><path fill="#34495E" d="M4 7.6h0.6v2h-0.6z"/><path fill="#F1C40E" d="M4 9h5L4 4z"/><path fill="#EBEDEE" d="M0 0v14.4h16.8l0.8 -1H1V1h18v11l1 -0.8V0z"/><path fill="#BDC3C7" d="M16.8 14.4V11.2h3.2z"/><path fill="#C3E4F8" d="M12.761 4.006c0.024 -0.065 0.039 -0.133 0.039 -0.206a0.6 0.6 0 0 0 -0.6 -0.6c-0.076 0 -0.149 0.016 -0.216 0.042A0.8 0.8 0 0 0 11.2 2.6h-0.2a0.8 0.8 0 0 0 -0.8 0.8v0.2c0 0.16 0.048 0.307 0.129 0.432A0.499 0.499 0 0 0 10.5 5h2.2a0.498 0.498 0 1 0 0.061 -0.994"/><path fill="#ffffff" d="M14.271 4.632A0.792 0.792 0 0 0 14.4 4.2v-0.2a0.8 0.8 0 0 0 -0.8 -0.8h-0.2a0.8 0.8 0 0 0 -0.784 0.642A0.6 0.6 0 0 0 12.4 3.8c-0.331 0 -0.6 0.269 -0.6 0.6 0 0.073 0.015 0.142 0.039 0.206A0.498 0.498 0 0 0 11.9 5.6h2.2a0.499 0.499 0 1 0 0.171 -0.968"/><path fill="#DA8C11" d="M10.6 9.6H2.6v0.4h7.6z"/><path fill="#C8CACB" d="m14.6 13.4 -1 1h3.2v-1z"/><path fill="#2875A8" d="M16.8 12v-0.4h-0.4l-0.4 0.4z"/></svg>