<svg version="1.1" id="Layer_1" xmlns="http://www.w3.org/2000/svg" xmlns:xlink="http://www.w3.org/1999/xlink" x="0px" y="0px" viewBox="0 0 160 160" style="enable-background:new 0 0 512 512;" xml:space="preserve" width="160" height="160"><path style="fill:#E2E5E7;" d="M40 0c-5.5 0 -10 4.5 -10 10v140c0 5.5 4.5 10 10 10h100c5.5 0 10 -4.5 10 -10V40L110 0z"/><path style="fill:#B0B7BD;" d="M120 40h30L110 0v30c0 5.5 4.5 10 10 10"/><path style="fill:#CAD1D8;" points="480,224 384,128 480,128 " d="M150 70L120 40L150 40Z"/><path style="fill:#F15642;" d="M130 130c0 2.75 -2.25 5 -5 5H15c-2.75 0 -5 -2.25 -5 -5V80c0 -2.75 2.25 -5 5 -5h110c2.75 0 5 2.25 5 5z"/><g><path style="fill:#FFFFFF;" d="M30.665 98.335c0.92 -7.76 12.63 -9.155 18.145 -4.915 2.72 2.195 -0.155 5.675 -2.56 3.915 -2.955 -1.875 -9.675 -2.755 -10.515 1.395 -1.08 6.56 16.315 2.805 16.03 13.44 -0.28 10.155 -14.99 10.39 -20.51 5.835 -1.32 -1.08 -1.28 -2.835 -0.555 -3.92 1.035 -1.035 2.195 -1.395 3.555 -0.275 3.28 2.235 11.715 3.915 12.315 -1.765 -0.515 -5.91 -17.145 -2.355 -15.905 -13.71"/><path style="fill:#FFFFFF;" d="m82.965 115.445 0.64 0.755c2.635 2.4 -0.8 6.32 -3.48 3.8l-1.355 -1.075c-2.08 1.435 -4.515 2.12 -7.755 2.12 -7.035 0 -15.075 -4.845 -15.075 -14.68s7.995 -14.83 15.075 -14.83c7.43 0 14.71 4.995 14.71 14.83 0 3.8 -0.965 6.605 -2.76 9.08m-2.405 -9.08c0 -6.355 -4.995 -9.59 -9.55 -9.59 -4.915 0 -9.755 3.23 -9.755 9.59 0 4.845 4.115 9.44 9.755 9.44 1.435 0 2.835 -0.36 4.235 -0.72l-4.555 -4.2c-2.12 -2.56 1.24 -6.2 3.915 -3.84l4.52 4.515c0.995 -1.395 1.435 -3.115 1.435 -5.195"/><path style="fill:#FFFFFF;" d="M91.615 94.735c0 -1.32 1.12 -2.44 2.52 -2.44 1.28 0 2.36 1.125 2.36 2.44v20.03h10.875c3.915 0 4 5.235 0 5.235h-13.23c-1.4 0 -2.52 -0.995 -2.52 -2.435v-22.83z"/></g><path style="fill:#CAD1D8;" d="M125 135H30v5h95c2.75 0 5 -2.25 5 -5v-5c0 2.75 -2.25 5 -5 5"/></svg>