<svg width="800px" height="800px" viewBox="0 0 24 24" xmlns:rdf="http://www.w3.org/1999/02/22-rdf-syntax-ns#" xmlns="http://www.w3.org/2000/svg" version="1.1" xmlns:cc="http://creativecommons.org/ns#" xmlns:dc="http://purl.org/dc/elements/1.1/"><g transform="translate(0 -1028.4)"><g><path d="M12 1028.4a12 12 0 1 0 0 24 12 12 0 0 0 0 -24m0 7a5 5 0 1 1 0 10 5 5 0 0 1 0 -10" fill="#ecf0f1"/><path d="M0.09 1038.9q-0.09 0.75 -0.09 1.5c0 6.6 5.37 12 12 12s12 -5.4 12 -12q0 -0.75 -0.09 -1.5c-0.74 5.9 -5.79 10.5 -11.91 10.5s-11.16 -4.6 -11.91 -10.5" fill="#bdc3c7"/><path d="M12 1032.4a5 5 0 0 0 -5 5q0.01 0.79 0.25 1.5c0.64 -2.02 2.52 -3.5 4.75 -3.5s4.11 1.48 4.75 3.5a5 5 0 0 0 0.25 -1.5 5 5 0 0 0 -5 -5" fill="#bdc3c7"/><path d="M20.48 1031.9a10 10 0 0 0 -3.96 -2.6l-2.65 6.5c0.6 0.2 1.17 0.5 1.66 1s0.84 1.1 1.08 1.7l6.5 -2.7a13 13 0 0 0 -2.63 -3.9m-13.02 -2.6c-1.44 0.5 -2.78 1.4 -3.96 2.6s-2.04 2.5 -2.63 3.9l6.5 2.7c0.24 -0.6 0.59 -1.2 1.08 -1.7s1.06 -0.8 1.66 -1zm15.65 15.6 -6.5 -2.7a5 5 0 0 1 -1.08 1.7 6 6 0 0 1 -1.66 1.1l2.65 6.5c1.44 -0.6 2.78 -1.5 3.96 -2.6 1.17 -1.2 2.04 -2.6 2.63 -4m-15.73 -2.7 -6.5 2.7c0.58 1.4 1.46 2.8 2.63 4 1.17 1.1 2.51 2 3.96 2.6l2.65 -6.5c-0.6 -0.3 -1.17 -0.6 -1.66 -1.1s-0.84 -1.1 -1.08 -1.7" fill="#e74c3c"/><path d="m2.25 1044.3 -1.38 0.6c0.59 1.4 1.45 2.8 2.63 4 1.17 1.1 2.52 2 3.97 2.6l1.06 -2.6a12 12 0 0 1 -6.28 -4.6m19.5 0a12 12 0 0 1 -6.28 4.6l1.06 2.6c1.45 -0.6 2.77 -1.5 3.94 -2.6 1.17 -1.2 2.07 -2.6 2.66 -4z" fill="#c0392b"/><path d="M9.13 1033.3a5 5 0 0 0 -2.04 5.1l0.28 0.1c0.24 -0.6 0.61 -1.2 1.09 -1.7s1.05 -0.8 1.66 -1.1zm5.75 0 -1 2.4c0.6 0.3 1.17 0.6 1.66 1.1s0.85 1.1 1.09 1.7l0.28 -0.1a5.04 5.04 0 0 0 -2.04 -5.1" fill="#c0392b"/></g></g></svg>