<?xml version="1.0" standalone="no"?>
<!DOCTYPE svg PUBLIC "-//W3C//DTD SVG 20010904//EN"
        "http://www.w3.org/TR/2001/REC-SVG-20010904/DTD/svg10.dtd">
<svg version="1.0" xmlns="http://www.w3.org/2000/svg"
     width="56.000000pt" height="56.000000pt" viewBox="0 0 56.000000 56.000000"
     preserveAspectRatio="xMidYMid meet">

    <g transform="translate(0.000000,56.000000) scale(0.100000,-0.100000)"
       fill="#4644d5" stroke="none">
        <path d="M223 550 c-211 -43 -291 -311 -138 -465 107 -106 283 -106 390 0 106
107 106 283 0 390 -64 64 -162 93 -252 75z m53 -131 c3 -6 -25 -42 -65 -83
-75 -75 -88 -108 -55 -140 29 -29 55 -18 134 59 62 61 79 73 88 62 9 -11 -6
-31 -72 -95 -69 -68 -89 -82 -116 -82 -46 0 -90 47 -90 95 0 33 9 47 77 116
42 44 80 79 84 79 4 0 11 -5 15 -11z m155 -28 c22 -22 29 -39 29 -67 0 -32 -9
-46 -80 -118 -63 -65 -82 -78 -92 -68 -10 10 2 26 60 85 76 76 89 109 56 141
-29 29 -55 18 -135 -61 -63 -61 -82 -74 -92 -64 -9 9 6 29 74 96 100 98 128
107 180 56z"/>
    </g>
</svg>
