<svg version="1.1" id="Layer_1" xmlns="http://www.w3.org/2000/svg" xmlns:xlink="http://www.w3.org/1999/xlink" x="0px" y="0px" viewBox="0 0 160 160" style="enable-background:new 0 0 393.568 393.568;" xml:space="preserve" width="160" height="160"><path style="fill:#FBD303;" cx="196.784" cy="196.784" r="196.784" d="M160 80A80 80 0 0 1 80 160A80 80 0 0 1 0 80A80 80 0 0 1 160 80z"/><path style="fill:#FCFCFD;" d="M127.175 50.066c-2.234 0 -4.468 0.315 -6.596 0.736 -1.918 -10.749 -11.827 -18.213 -22.575 -17.162 -6.176 -11.091 -18.003 -18.633 -31.642 -18.633 -19.606 0 -35.585 15.663 -36.216 35.033 -14.165 1.393 -25.361 13.325 -25.361 27.911 0 15.453 12.562 28.016 28.016 28.016h94.376c15.453 0 28.016 -12.562 28.016 -28.016s-12.562 -27.885 -28.016 -27.885"/><path style="fill:#646B79;" d="M107.91 50.066H52.089c-6.386 0 -11.511 5.125 -11.511 11.511s5.125 11.511 11.511 11.511h55.926c6.386 0 11.511 -5.125 11.511 -11.511s-5.23 -11.511 -11.616 -11.511"/><path style="fill:#F0582F;" cx="132.848" cy="151.208" r="9.697" d="M57.95 61.472A3.942 3.942 0 0 1 54.008 65.414A3.942 3.942 0 0 1 50.065 61.472A3.942 3.942 0 0 1 57.95 61.472z"/><path x="189.737" y="141.511" style="fill:#6EB1E1;" width="73.891" height="19.394" d="M77.135 57.529H107.175V65.414H77.135V57.529z"/><path style="fill:#646B79;" d="M107.91 75.427H52.089c-6.386 0 -11.511 5.125 -11.511 11.511s5.125 11.511 11.511 11.511h55.926a11.475 11.475 0 0 0 11.511 -11.511c-0.105 -6.412 -5.23 -11.511 -11.616 -11.511"/><path style="fill:#F0582F;" cx="132.848" cy="213.786" r="9.697" d="M57.95 86.912A3.942 3.942 0 0 1 54.008 90.854A3.942 3.942 0 0 1 50.065 86.912A3.942 3.942 0 0 1 57.95 86.912z"/><path x="189.737" y="204.089" style="fill:#6EB1E1;" width="73.891" height="19.394" d="M77.135 82.97H107.175V90.854H77.135V82.97z"/><path style="fill:#646B79;" d="M107.91 100.762H52.089c-6.386 0 -11.511 5.125 -11.511 11.511s5.125 11.511 11.511 11.511h55.926a11.475 11.475 0 0 0 11.511 -11.511c-0.105 -6.281 -5.23 -11.511 -11.616 -11.511"/><path style="fill:#F0582F;" cx="132.848" cy="276.17" r="9.697" d="M57.95 112.273A3.942 3.942 0 0 1 54.008 116.216A3.942 3.942 0 0 1 50.065 112.273A3.942 3.942 0 0 1 57.95 112.273z"/><path x="189.737" y="266.473" style="fill:#6EB1E1;" width="73.891" height="19.394" d="M77.135 108.331H107.175V116.216H77.135V108.331z"/><path style="fill:#DDDEE6;" points="203.572,339.846 203.572,304.485 189.996,304.485 189.996,339.846 133.883,339.846
	133.883,353.487 259.426,353.487 259.426,339.846 " d="M82.76 138.16L82.76 123.784L77.24 123.784L77.24 138.16L54.428 138.16L54.428 143.706L105.466 143.706L105.466 138.16Z"/><path style="fill:#4F5565;" points="206.739,336.679 206.739,327.758 186.828,327.758 186.828,336.679 179.2,336.679
	179.2,356.59 215.402,356.59 215.402,336.679 " d="M84.047 136.873L84.047 133.246L75.953 133.246L75.953 136.873L72.851 136.873L72.851 144.967L87.569 144.967L87.569 136.873Z"/></svg>