<svg version="1.0" xmlns="http://www.w3.org/2000/svg" width="512.000000pt" height="512.000000pt" viewBox="0 0 512 512" preserveAspectRatio="xMidYMid meet"><g transform="matrix(.1 0 0 -.1 0 512)" fill="#6DB33F" stroke="none"><path d="M4080 4465c-331 -93 -443 -523 -200 -766 281 -282 760 -105 787 291 14 192 -88 364 -263 447 -68 32 -86 36 -172 40 -66 2 -114 -2 -152 -12"/><path d="M1827 4378c-159 -409 -771 -1988 -774 -2000 -9 -32 22 -19 67 28 138 142 352 238 559 251 93 6 93 6 106 37 7 17 61 199 121 403 59 205 111 367 115 360 5 -9 155 -522 201 -684 6 -23 15 -33 29 -33 29 0 138 52 206 98 67 45 189 171 216 223l19 34 -244 645 -244 645 -186 3c-143 2 -187 0 -191 -10"/><path d="M3855 3218c-3 -7 -4 -569 -3 -1248l3 -1235h710l3 1239c1 720 -2 1244 -7 1249s-49 2 -107 -8c-125 -21 -367 -22 -484 -1 -104 19 -109 19 -115 4"/><path d="M2901 2946c-81 -155 -286 -324 -503 -418 -124 -53 -225 -76 -402 -88 -388 -28 -483 -52 -642 -165 -242 -173 -327 -540 -181 -772 30 -47 102 -111 134 -119 35 -9 411 80 608 143 337 109 670 364 829 637 21 37 41 65 43 62 8 -8 -58 -152 -105 -228 -171 -278 -432 -500 -709 -601 -54 -20 -194 -66 -310 -103 -117 -37 -213 -72 -213 -77s7 -6 18 -1c9 5 215 9 457 9 482 2 534 6 703 64 215 74 356 220 431 446 44 133 54 229 48 434 -5 183 -24 311 -73 506 -33 129 -93 315 -102 315 -4 0 -18 -20 -31 -44"/><path d="M813 1793c-4 -10 -103 -245 -220 -523 -117 -277 -213 -512 -213 -522 0 -17 20 -18 353 -18 193 0 357 4 364 8 17 11 63 136 55 148 -4 5 -31 25 -60 43 -64 41 -112 98 -149 177 -26 55 -28 68 -28 189 0 84 -5 138 -13 152 -20 36 -51 182 -58 275 -7 84 -17 108 -31 71"/><path d="M3245 1533c-79 -177 -246 -357 -397 -429 -25 -12 -38 -24 -38 -37 0 -23 106 -305 122 -324 8 -10 88 -13 364 -13 213 0 355 4 359 10 8 13 -355 860 -369 860 -6 0 -24 -31 -41 -67"/><path d="M1163 1311c-38 -24 -53 -49 -53 -91 0 -67 43 -110 110 -110 69 0 110 43 110 114 0 80 -97 131 -167 87"/></g></svg>