<svg version="1.1" xmlns="http://www.w3.org/2000/svg" xmlns:xlink="http://www.w3.org/1999/xlink" viewBox="0 0 160 160" xml:space="preserve" width="160" height="160"><style type="text/css">.st0{fill:#76C2AF;}
	.st1{opacity:0.2;}
	.st2{fill:#231F20;}
	.st3{fill:#4F5D73;}
	.st4{fill:#F5CF87;}
	.st5{fill:#FFFFFF;}</style><g id="Layer_1"><g><path class="st0" cx="32" cy="32" r="32" d="M160 80A80 80 0 0 1 80 160A80 80 0 0 1 0 80A80 80 0 0 1 160 80z"/></g><g class="st1"><path class="st2" d="M124.75 115.5 89.5 80.25c-2.5 -2.5 -6.25 -3.5 -9.5 -2.5l-20.25 -20 -7.5 -14.75 -14.75 -7.5 -7.25 7 7.5 14.75 14.75 7.5 20.25 20c-1 3.25 0 7 2.5 9.5l35.25 35.25c4 4 10.25 4 14.25 0 4 -3.75 4 -10 0 -14"/></g><g><path class="st3" points="34.5,37.3 18.4,21.4 21.3,18.6 37.4,34.5 		" d="M86.25 93.25L46 53.5L53.25 46.5L93.5 86.25Z"/></g><g><path class="st4" d="M124.75 124.75c-4 4 -10.25 4 -14.25 0L75.25 89.5c-4 -4 -4 -10.25 0 -14.25s10.25 -4 14.25 0l35.25 35.25c4 4 4 10.25 0 14.25"/></g><g class="st1"><path class="st2" d="m133.25 46 -16.25 16.25c-4 4 -10.25 4 -14.25 0s-4 -10.25 0 -14.25l16.25 -16.25c-2.75 -1 -5.75 -1.75 -9 -1.75 -13.75 0 -25 11.25 -25 25 0 3.25 0.75 6.25 1.75 9l-27.5 27.5c-3 -0.75 -6 -1.5 -9.25 -1.5 -13.75 0 -25 11.25 -25 25 0 3.25 0.75 6.25 1.75 9l16.25 -16.25c4 -4 10.25 -4 14.25 0s4 10.25 0 14.25l-16.25 16.25c2.75 1 6 1.75 9 1.75 13.75 0 25 -11.25 25 -25 0 -3.25 -0.75 -6.25 -1.75 -9l27.5 -27.5c2.75 1 6 1.75 9 1.75 13.75 0 25 -11.25 25 -25 0.25 -3.5 -0.5 -6.5 -1.5 -9.25"/></g><g><path x="23.4" y="28" transform="rotate(-45 32 32)" class="st5" width="17.1" height="8" d="M58.5 70H101.25V90H58.5V70z"/></g><g><path class="st3" points="21,23.9 15.1,20.9 12.1,15 14.9,12.1 20.8,15.2 23.9,21.1 		" d="M52.5 59.75L37.75 52.25L30.25 37.5L37.25 30.25L52 38L59.75 52.75Z"/></g><g><g><path class="st5" d="M117 57c-4 4 -10.25 4 -14.25 0s-4 -10.25 0 -14.25l16.25 -16.25c-2.75 -0.75 -5.75 -1.5 -9 -1.5 -13.75 0 -25 11.25 -25 25s11.25 25 25 25 25 -11.25 25 -25c0 -3.25 -0.75 -6.25 -1.75 -9z"/></g></g><g><g><path class="st5" d="M43 103c4 -4 10.25 -4 14.25 0s4 10.25 0 14.25l-16.25 16.25c2.75 1 6 1.75 9 1.75 13.75 0 25 -11.25 25 -25s-11.25 -25 -25 -25 -25 11.25 -25 25c0 3.25 0.75 6.25 1.75 9z"/></g></g></g><g id="Layer_2"/></svg>