<svg version="1.1" id="Layer_1" xmlns="http://www.w3.org/2000/svg" xmlns:xlink="http://www.w3.org/1999/xlink" x="0px" y="0px" viewBox="0 0 160 160" style="enable-background:new 0 0 512 512;" xml:space="preserve" width="160" height="160"><path style="fill:#3A99D7;" cx="255.997" cy="255.996" r="255.996" d="M159.998 79.999A79.999 79.999 0 0 1 79.999 159.998A79.999 79.999 0 0 1 0 79.999A79.999 79.999 0 0 1 159.998 79.999z"/><path style="fill:#2682BF;" d="M159.867 75.425c0.085 1.514 0.133 3.039 0.133 4.575 0 44.182 -35.818 80 -80 80a81.563 81.563 0 0 1 -4.606 -0.135L37.953 122.425l84.59 -84.321L159.866 75.426z"/><path style="fill:#E84F4F;" d="M40.272 36.713h79.456c1.965 0 3.558 1.593 3.558 3.558v79.456c0 1.965 -1.593 3.558 -3.558 3.558H40.272c-1.965 0 -3.558 -1.593 -3.558 -3.558v-79.456c0 -1.965 1.593 -3.558 3.558 -3.558"/><path x="124.577" y="158.407" style="fill:#EFEFF0;" width="262.85" height="229.03" d="M38.93 49.502H121.071V121.074H38.93V49.502z"/><g><path style="fill:#EBECEC;" d="M66.655 40.832h48.505a0.737 0.737 0 0 1 0.738 0.738v2.01a0.737 0.737 0 0 1 -0.738 0.738H66.655a0.737 0.737 0 0 1 -0.738 -0.738v-2.01a0.737 0.737 0 0 1 0.738 -0.738"/><path style="fill:#EBECEC;" d="M44.958 40.031a2.546 2.546 0 0 1 0 5.092c-1.406 0 -2.546 -1.141 -2.546 -2.547a2.547 2.547 0 0 1 2.546 -2.546m13.287 0c1.406 0 2.547 1.141 2.547 2.546 0 1.406 -1.141 2.547 -2.547 2.547 -1.405 0 -2.546 -1.141 -2.546 -2.547a2.547 2.547 0 0 1 2.546 -2.546m-6.643 0c1.406 0 2.547 1.141 2.547 2.546 0 1.406 -1.141 2.547 -2.547 2.547 -1.405 0 -2.546 -1.141 -2.546 -2.547a2.547 2.547 0 0 1 2.546 -2.546"/></g><path style="fill:#C94545;" d="m88.982 111.924 -11.642 -6.637 -1.072 -0.611 1.072 -0.611 11.642 -6.637 1.052 -0.601v5.672c3.491 -1.157 6.513 -3.352 8.697 -6.22 2.311 -3.035 3.683 -6.824 3.683 -10.938 0 -4.989 -2.023 -9.507 -5.292 -12.777s-7.788 -5.293 -12.777 -5.293l-1.647 0.072 -0.115 -3.871a22.5 22.5 0 0 1 1.762 -0.071c6.058 0 11.545 2.457 15.514 6.427s6.427 9.455 6.427 15.514c0 5.116 -1.753 9.824 -4.69 13.555 -2.886 3.666 -6.921 6.39 -11.561 7.633v5.992l-1.052 -0.6z"/><g><path style="fill:#006775;" d="M68.178 72.353c-0.296 0.327 -0.531 0.588 -0.663 0.77a165.938 165.938 0 0 1 1.246 0.86c2.34 1.621 3.325 2.304 7.107 4.027l0.263 0.12 -0.192 0.217 -1.963 2.223 -0.091 0.102 -0.13 -0.04c-2.625 -0.804 -6.146 -3.514 -8.467 -5.303l-0.094 -0.073c-0.961 0.735 -2.467 1.86 -4.025 2.904 -1.64 1.097 -3.34 2.104 -4.541 2.472l-0.13 0.04 -0.092 -0.102 -1.902 -2.152 -0.191 -0.217 0.263 -0.12a32.5 32.5 0 0 1 1.527 -0.648c0.914 -0.369 1.623 -0.654 3.037 -1.542 0.613 -0.384 1.718 -1.104 2.632 -1.773 0.493 -0.361 0.926 -0.703 1.182 -0.963 -0.805 -0.771 -1.934 -2.067 -2.896 -3.494 -0.77 -1.142 -1.438 -2.375 -1.757 -3.502l-0.075 -0.271 0.282 -0.001 3.329 -0.021 0.129 -0.001 0.061 0.115a8.75 8.75 0 0 1 0.465 1.005c0.168 0.415 0.313 0.776 1.005 1.801 0.339 0.501 0.641 0.921 0.948 1.302a12.188 12.188 0 0 0 0.898 0.993c0.719 -0.493 1.895 -2.011 2.775 -3.73 0.671 -1.309 1.161 -2.73 1.134 -3.885l-15.08 -0.025 -0.215 -0.001v-3.324h0.215l9.372 -0.001v-2.876h3.303l-0.001 0.215 -0.003 2.661 9.375 -0.002 0.215 -0.001v0.216l0.001 2.876 0.001 0.213 -0.216 0.001 -3.619 0.001c-0.283 4.354 -3.013 7.379 -4.424 8.94h-0.001z"/><path style="fill:#006775;" d="m53.717 114.233 4.31 0.02 1.781 -5.427 10.843 -0.013 1.774 5.427 4.251 -0.003 -9.01 -22.937 -4.932 -0.011 -9.019 22.943zm7.325 -8.503 8.343 0.059 -4.102 -10.612z"/></g></svg>