<svg fill-rule="evenodd" stroke-width="27" viewBox="0 0 1493 391" xmlns="http://www.w3.org/2000/svg"><path d="m1345.211 24.704 112.262 64.305a43 43 0 0 1 21.627 37.312v142.237a40 40 0 0 1 -20.702 35.037l-120.886 66.584a42 42 0 0 1 -41.216-.389l-106.242-61.155a57 57 0 0 1 -28.564-49.4v-120.525a64 64 0 0 1 31.172-54.939l98.01-58.564a54 54 0 0 1 54.54-.503z" fill="#ebb951" stroke="#fcd804"/><path d="m958.07 22.82 117.31 66.78a41 41 0 0 1 20.72 35.64v139.5a45 45 0 0 1 -23.1 39.32l-117.32 65.34a44 44 0 0 1 -43.54-.41l-105.82-61.6a56 56 0 0 1 -27.83-48.4v-118.92a68 68 0 0 1 33.23-58.44l98.06-58.35a48 48 0 0 1 48.3-.46z" fill="#33ba91" stroke="#00a88a"/><path d="m575.26 20.97 117.23 68.9a40 40 0 0 1 19.73 34.27l.73 138.67a48 48 0 0 1 -24.64 42.2l-115.13 64.11a45 45 0 0 1 -44.53-.42l-105.83-61.6a55 55 0 0 1 -27.33-47.53v-123.05a63 63 0 0 1 29.87-53.59l99.3-61.4a49 49 0 0 1 50.6-.56z" fill="#0594cb" stroke="#0083c0"/><path d="m195.81 24.13 114.41 66.54a44 44 0 0 1 21.88 38.04v136.43a48 48 0 0 1 -24.45 41.82l-113.55 63.94a49 49 0 0 1 -48.48-.23l-104.57-60.19a53 53 0 0 1 -26.56-45.93v-129.47a55 55 0 0 1 26.1-46.8l102.8-63.46a51 51 0 0 1 52.42-.69z" fill="#ff4088" stroke="#c9177e"/><path d="m1320.72 89.15c58.79 0 106.52 47.73 106.52 106.51 0 58.8-47.73 106.52-106.52 106.52-58.78 0-106.52-47.73-106.52-106.52 0-58.78 47.74-106.51 106.52-106.51zm0 39.57c36.95 0 66.94 30 66.94 66.94a66.97 66.97 0 0 1 -66.94 66.94c-36.95 0-66.94-29.99-66.94-66.94a66.97 66.97 0 0 1 66.93-66.94zm-283.8 65.31c0 47.18-8.94 60.93-26.81 80.58s-41.57 27.57-71.1 27.57c-27 0-48.75-9.58-67.61-26.23-20.88-18.45-36.08-47.04-36.08-78.95 0-31.37 11.72-58.48 32.49-78.67 18.22-17.67 45.34-29.18 73.3-29.18 33.77 0 68.83 15.98 90.44 47.53l-31.73 26.82c-13.45-25.03-32.94-33.46-60.82-34.26-30.83-.88-64.77 28.53-62.25 67.75 1.4 21.94 11.65 59.65 60.96 66.57 25.9 3.63 55.36-24.02 55.36-39.04h-48.67v-37.5h92.5v6.98zm-562.6-94.65h42.29v112.17c0 17.8.49 29.33 1.47 34.61 1.69 8.48 4.81 14.37 11.17 19.5 6.37 5.13 13.8 6.59 24.84 6.59 11.2 0 14.96-1.74 20.66-6.6 5.69-4.85 9.12-9.46 10.28-16.53 1.15-7.07 3.07-18.8 3.07-35.18v-114.56h42.28v108.78c0 24.86-1.07 42.43-3.21 52.69-2.14 10.27-6.08 18.93-11.82 26-5.74 7.06-13.42 12.69-23.03 16.88-9.62 4.19-22.16 6.28-37.65 6.28-18.7 0-32.87-2.28-42.52-6.85-9.66-4.57-17.3-10.5-22.9-17.8-5.61-7.3-9.3-14.95-11.08-22.96-2.58-11.86-3.88-29.38-3.88-52.55v-110.47zm-380.41 200.54v-207.22h43.35v75.48h71.92v-75.48h43.48v207.22h-43.48v-90.61h-71.92v90.61z" fill="#fff"/></svg>